<svg xmlns="http://www.w3.org/2000/svg" viewBox="0 0 900 380" role="img"><style>text{font-family:Arial,sans-serif;fill:#eaeaea;font-size:17px}.small{font-size:14px;fill:#b6c1cd}.title{font-size:21px;font-weight:bold}.axis{stroke:#748191;stroke-width:1}.grid{stroke:#394454;stroke-width:1}.line{fill:none;stroke:#8cced2;stroke-width:3}</style><defs><marker id="a" markerWidth="7" markerHeight="7" refX="6" refY="3" orient="auto"><path d="M0,0 L6,3 L0,6" fill="#8cced2"/></marker><marker id="b" markerWidth="7" markerHeight="7" refX="6" refY="3" orient="auto"><path d="M0,0 L6,3 L0,6" fill="#f2bb72"/></marker></defs><rect width="900" height="380" rx="14" fill="#252a34"/><text x="30" y="35" class="title">Boundary orientation connects local and total measurements</text><ellipse cx="240" cy="215" rx="145" ry="65" fill="#31434c" stroke="#8cced2" stroke-width="2"/><path d="M240,215 L240,90" fill="none" stroke="#8cced2" stroke-width="3" marker-end="url(#a)"/><text x="250" y="100" class="">n</text><path d="M365,247 Q270,302 125,252" class="line" marker-end="url(#a)"/><text x="70" y="110" class="">Stokes</text><text x="75" y="330" class="small">Normal up → boundary counterclockwise</text><text x="140" y="220" class="">surface S</text><circle cx="660" cy="205" r="87" fill="#31434c" stroke="#8cced2" stroke-width="2"/><path d="M740.0,205.0 L785.0,205.0" fill="none" stroke="#8cced2" stroke-width="3" marker-end="url(#a)"/><path d="M660.0,285.0 L660.0,330.0" fill="none" stroke="#8cced2" stroke-width="3" marker-end="url(#a)"/><path d="M580.0,205.0 L535.0,205.00000000000003" fill="none" stroke="#8cced2" stroke-width="3" marker-end="url(#a)"/><path d="M660.0,125.0 L660.0,80.0" fill="none" stroke="#8cced2" stroke-width="3" marker-end="url(#a)"/><text x="565" y="65" class="">Divergence theorem</text><text x="625" y="210" class="">volume Ω</text><text x="555" y="355" class="small">Closed surface → outward normals</text></svg>